<svg width="266" height="266" viewBox="0 0 266 266" fill="none" xmlns="http://www.w3.org/2000/svg">
<path d="M264.428 185.511C266.178 189.015 266.465 193.071 265.227 196.787C263.988 200.503 261.325 203.575 257.822 205.329L139.595 264.441C137.544 265.466 135.283 266 132.989 266C130.696 266 128.435 265.466 126.384 264.441L8.15666 205.329C4.77644 203.506 2.23854 200.439 1.08055 196.777C-0.0774438 193.116 0.235434 189.147 1.95291 185.712C3.67038 182.277 6.65754 179.646 10.2816 178.375C13.9058 177.105 17.8821 177.295 21.3685 178.905L132.989 234.678L244.625 178.89C248.13 177.14 252.185 176.853 255.901 178.092C259.617 179.33 262.69 181.994 264.443 185.496M264.443 126.383C266.193 129.888 266.48 133.943 265.242 137.659C264.003 141.375 261.34 144.447 257.837 146.201L139.61 205.314C137.559 206.339 135.297 206.872 133.004 206.872C130.711 206.872 128.45 206.339 126.398 205.314L8.17144 146.201C4.79121 144.378 2.25331 141.311 1.09532 137.649C-0.0626665 133.988 0.250215 130.019 1.96769 126.584C3.68516 123.149 6.67232 120.518 10.2964 119.247C13.9205 117.977 17.8969 118.167 21.3833 119.777L132.989 175.565L244.625 119.777C248.13 118.027 252.185 117.74 255.901 118.979C259.617 120.217 262.69 122.881 264.443 126.383ZM133.108 0C133.659 0 134.206 0.0344821 134.748 0.103447L136.388 0.399011L137.659 0.753691L137.837 0.842357L138.014 0.871915L138.443 1.07881L139.182 1.3596L139.418 1.4926L139.595 1.56649L257.822 60.6794C260.274 61.908 262.335 63.7945 263.775 66.1277C265.216 68.461 265.979 71.149 265.979 73.8911C265.979 76.6332 265.216 79.3212 263.775 81.6544C262.335 83.9877 260.274 85.8742 257.822 87.1028L139.595 146.216C137.544 147.241 135.283 147.774 132.989 147.774C130.696 147.774 128.435 147.241 126.384 146.216L8.15666 87.1028C5.70521 85.8742 3.64393 83.9877 2.20343 81.6544C0.762924 79.3212 0 76.6332 0 73.8911C0 71.149 0.762924 68.461 2.20343 66.1277C3.64393 63.7945 5.70521 61.908 8.15666 60.6794L126.384 1.56649L126.546 1.4926L126.812 1.34482L127.965 0.871915L128.127 0.842357L128.319 0.753691L129.59 0.399011L131.216 0.103447L132.044 0.0295578L133.108 0Z" fill="url(#paint0_linear_7_60)"/>
<defs>
<linearGradient id="paint0_linear_7_60" x1="133" y1="0" x2="133" y2="266" gradientUnits="userSpaceOnUse">
<stop stop-color="#18B3B9"/>
<stop offset="1" stop-color="#0F7C80"/>
</linearGradient>
</defs>
</svg>
